
  <svg width='1042.5px'
       height='343.6326859021799px'
       viewBox='0 0 1042.5 343.6326859021799'
       xmlns='http://www.w3.org/2000/svg'
       xmlns:xlink="http://www.w3.org/1999/xlink">

    <style type='text/css'>
    .keycap .border { stroke: black; stroke-width: 2; }
    .keycap .inner.border { stroke: rgba(0,0,0,.1); }
    </style>
    <defs>
      <linearGradient id="DCS">
        <stop offset="0%" stop-color="black" stop-opacity="0"/>
        <stop offset="40%" stop-color="black" stop-opacity="0.1"/>
        <stop offset="60%" stop-color="black" stop-opacity="0.1"/>
        <stop offset="100%" stop-color="black" stop-opacity="0"/>
      </linearGradient>
      <linearGradient id="SPACE" x1="0%" x2="0%" y1="0%" y2="100%">
        <stop offset="0%" stop-color="black" stop-opacity="0.1"/>
        <stop offset="20%" stop-color="black" stop-opacity="0.0"/>
        <stop offset="40%" stop-color="black" stop-opacity="0.0"/>
        <stop offset="100%" stop-color="black" stop-opacity="0.1"/>
      </linearGradient>
      <radialGradient id="DSA">
        <stop offset="0%" stop-color="black" stop-opacity="0.1"/>
        <stop offset="10%" stop-color="black" stop-opacity="0.1"/>
        <stop offset="100%" stop-color="black" stop-opacity="0"/>
      </radialGradient>
      <radialGradient id="SA" xlink:href="#DSA" />
    </defs>

    <g transform='translate(10,10)'>
      <rect width="1022.5" height="323.6326859021799"
            stroke="#ddd" stroke-width="1" fill="#eeeeee" rx="6"/>
      <g transform='translate(5,5)'>
        
  <g class='  keycap'
  >

  
    <!-- Outer Border -->
    <rect x="716.5" y="1"
          width="52" height="52"
          rx="5" fill="#cccccc" class="outer border"/>
    
    <!-- Outer Fill -->
    <rect x="716.5" y="1"
          width="52" height="52"
          rx="5" fill="#cccccc"/>
    

    
      <!-- Inner Border -->
      <rect x="722.5" y="4"
            width="40" height="40"
            rx="5" fill="#fcfcfc" class="inner border"/>
      
      <!-- Inner Fill -->
      <rect x="722.5" y="4"
            width="40" height="40"
            rx="5" fill="#fcfcfc"/>
      
      

     
   
  </g>

  <g class='  keycap'
  >

  
    <!-- Outer Border -->
    <rect x="662.5" y="7.75"
          width="52" height="52"
          rx="5" fill="#cccccc" class="outer border"/>
    
    <!-- Outer Fill -->
    <rect x="662.5" y="7.75"
          width="52" height="52"
          rx="5" fill="#cccccc"/>
    

    
      <!-- Inner Border -->
      <rect x="668.5" y="10.75"
            width="40" height="40"
            rx="5" fill="#fcfcfc" class="inner border"/>
      
      <!-- Inner Fill -->
      <rect x="668.5" y="10.75"
            width="40" height="40"
            rx="5" fill="#fcfcfc"/>
      
      

     
   
  </g>

  <g class='  keycap'
  >

  
    <!-- Outer Border -->
    <rect x="770.5" y="7.75"
          width="52" height="52"
          rx="5" fill="#cccccc" class="outer border"/>
    
    <!-- Outer Fill -->
    <rect x="770.5" y="7.75"
          width="52" height="52"
          rx="5" fill="#cccccc"/>
    

    
      <!-- Inner Border -->
      <rect x="776.5" y="10.75"
            width="40" height="40"
            rx="5" fill="#fcfcfc" class="inner border"/>
      
      <!-- Inner Fill -->
      <rect x="776.5" y="10.75"
            width="40" height="40"
            rx="5" fill="#fcfcfc"/>
      
      

     
   
  </g>

  <g class='  keycap'
  >

  
    <!-- Outer Border -->
    <rect x="608.5" y="14.5"
          width="52" height="52"
          rx="5" fill="#cccccc" class="outer border"/>
    
    <!-- Outer Fill -->
    <rect x="608.5" y="14.5"
          width="52" height="52"
          rx="5" fill="#cccccc"/>
    

    
      <!-- Inner Border -->
      <rect x="614.5" y="17.5"
            width="40" height="40"
            rx="5" fill="#fcfcfc" class="inner border"/>
      
      <!-- Inner Fill -->
      <rect x="614.5" y="17.5"
            width="40" height="40"
            rx="5" fill="#fcfcfc"/>
      
      

     
   
  </g>

  <g class='  keycap'
  >

  
    <!-- Outer Border -->
    <rect x="824.5" y="21.25"
          width="52" height="52"
          rx="5" fill="#cccccc" class="outer border"/>
    
    <!-- Outer Fill -->
    <rect x="824.5" y="21.25"
          width="52" height="52"
          rx="5" fill="#cccccc"/>
    

    
      <!-- Inner Border -->
      <rect x="830.5" y="24.25"
            width="40" height="40"
            rx="5" fill="#fcfcfc" class="inner border"/>
      
      <!-- Inner Fill -->
      <rect x="830.5" y="24.25"
            width="40" height="40"
            rx="5" fill="#fcfcfc"/>
      
      

     
   
  </g>

  <g class='  keycap'
  >

  
    <!-- Outer Border -->
    <rect x="878.5" y="21.25"
          width="52" height="52"
          rx="5" fill="#cccccc" class="outer border"/>
    
    <!-- Outer Fill -->
    <rect x="878.5" y="21.25"
          width="52" height="52"
          rx="5" fill="#cccccc"/>
    

    
      <!-- Inner Border -->
      <rect x="884.5" y="24.25"
            width="40" height="40"
            rx="5" fill="#fcfcfc" class="inner border"/>
      
      <!-- Inner Fill -->
      <rect x="884.5" y="24.25"
            width="40" height="40"
            rx="5" fill="#fcfcfc"/>
      
      

     
   
  </g>

  <g class=' decal keycap'
  >

   
  </g>

  <g class='  keycap'
  >

  
    <!-- Outer Border -->
    <rect x="716.5" y="55"
          width="52" height="52"
          rx="5" fill="#cccccc" class="outer border"/>
    
    <!-- Outer Fill -->
    <rect x="716.5" y="55"
          width="52" height="52"
          rx="5" fill="#cccccc"/>
    

    
      <!-- Inner Border -->
      <rect x="722.5" y="58"
            width="40" height="40"
            rx="5" fill="#fcfcfc" class="inner border"/>
      
      <!-- Inner Fill -->
      <rect x="722.5" y="58"
            width="40" height="40"
            rx="5" fill="#fcfcfc"/>
      
      

     
   
  </g>

  <g class='  keycap'
  >

  
    <!-- Outer Border -->
    <rect x="662.5" y="61.75"
          width="52" height="52"
          rx="5" fill="#cccccc" class="outer border"/>
    
    <!-- Outer Fill -->
    <rect x="662.5" y="61.75"
          width="52" height="52"
          rx="5" fill="#cccccc"/>
    

    
      <!-- Inner Border -->
      <rect x="668.5" y="64.75"
            width="40" height="40"
            rx="5" fill="#fcfcfc" class="inner border"/>
      
      <!-- Inner Fill -->
      <rect x="668.5" y="64.75"
            width="40" height="40"
            rx="5" fill="#fcfcfc"/>
      
      

     
   
  </g>

  <g class='  keycap'
  >

  
    <!-- Outer Border -->
    <rect x="770.5" y="61.75"
          width="52" height="52"
          rx="5" fill="#cccccc" class="outer border"/>
    
    <!-- Outer Fill -->
    <rect x="770.5" y="61.75"
          width="52" height="52"
          rx="5" fill="#cccccc"/>
    

    
      <!-- Inner Border -->
      <rect x="776.5" y="64.75"
            width="40" height="40"
            rx="5" fill="#fcfcfc" class="inner border"/>
      
      <!-- Inner Fill -->
      <rect x="776.5" y="64.75"
            width="40" height="40"
            rx="5" fill="#fcfcfc"/>
      
      

     
   
  </g>

  <g class='  keycap'
  >

  
    <!-- Outer Border -->
    <rect x="608.5" y="68.5"
          width="52" height="52"
          rx="5" fill="#cccccc" class="outer border"/>
    
    <!-- Outer Fill -->
    <rect x="608.5" y="68.5"
          width="52" height="52"
          rx="5" fill="#cccccc"/>
    

    
      <!-- Inner Border -->
      <rect x="614.5" y="71.5"
            width="40" height="40"
            rx="5" fill="#fcfcfc" class="inner border"/>
      
      <!-- Inner Fill -->
      <rect x="614.5" y="71.5"
            width="40" height="40"
            rx="5" fill="#fcfcfc"/>
      
      

     
   
  </g>

  <g class='  keycap'
  >

  
    <!-- Outer Border -->
    <rect x="824.5" y="75.25"
          width="52" height="52"
          rx="5" fill="#cccccc" class="outer border"/>
    
    <!-- Outer Fill -->
    <rect x="824.5" y="75.25"
          width="52" height="52"
          rx="5" fill="#cccccc"/>
    

    
      <!-- Inner Border -->
      <rect x="830.5" y="78.25"
            width="40" height="40"
            rx="5" fill="#fcfcfc" class="inner border"/>
      
      <!-- Inner Fill -->
      <rect x="830.5" y="78.25"
            width="40" height="40"
            rx="5" fill="#fcfcfc"/>
      
      

     
   
  </g>

  <g class='  keycap'
  >

  
    <!-- Outer Border -->
    <rect x="878.5" y="75.25"
          width="79" height="52"
          rx="5" fill="#cccccc" class="outer border"/>
    
    <!-- Outer Fill -->
    <rect x="878.5" y="75.25"
          width="79" height="52"
          rx="5" fill="#cccccc"/>
    

    
      <!-- Inner Border -->
      <rect x="884.5" y="78.25"
            width="67" height="40"
            rx="5" fill="#fcfcfc" class="inner border"/>
      
      <!-- Inner Fill -->
      <rect x="884.5" y="78.25"
            width="67" height="40"
            rx="5" fill="#fcfcfc"/>
      
      

     
   
  </g>

  <g class='  keycap'
  >

  
    <!-- Outer Border -->
    <rect x="716.5" y="109"
          width="52" height="52"
          rx="5" fill="#cccccc" class="outer border"/>
    
    <!-- Outer Fill -->
    <rect x="716.5" y="109"
          width="52" height="52"
          rx="5" fill="#cccccc"/>
    

    
      <!-- Inner Border -->
      <rect x="722.5" y="112"
            width="40" height="40"
            rx="5" fill="#fcfcfc" class="inner border"/>
      
      <!-- Inner Fill -->
      <rect x="722.5" y="112"
            width="40" height="40"
            rx="5" fill="#fcfcfc"/>
      
      

     
   
  </g>

  <g class='  keycap'
  >

  
    <!-- Outer Border -->
    <rect x="662.5" y="115.75"
          width="52" height="52"
          rx="5" fill="#cccccc" class="outer border"/>
    
    <!-- Outer Fill -->
    <rect x="662.5" y="115.75"
          width="52" height="52"
          rx="5" fill="#cccccc"/>
    

    
      <!-- Inner Border -->
      <rect x="668.5" y="118.75"
            width="40" height="40"
            rx="5" fill="#fcfcfc" class="inner border"/>
      
      <!-- Inner Fill -->
      <rect x="668.5" y="118.75"
            width="40" height="40"
            rx="5" fill="#fcfcfc"/>
      
      

     
   
  </g>

  <g class='  keycap'
  >

  
    <!-- Outer Border -->
    <rect x="770.5" y="115.75"
          width="52" height="52"
          rx="5" fill="#cccccc" class="outer border"/>
    
    <!-- Outer Fill -->
    <rect x="770.5" y="115.75"
          width="52" height="52"
          rx="5" fill="#cccccc"/>
    

    
      <!-- Inner Border -->
      <rect x="776.5" y="118.75"
            width="40" height="40"
            rx="5" fill="#fcfcfc" class="inner border"/>
      
      <!-- Inner Fill -->
      <rect x="776.5" y="118.75"
            width="40" height="40"
            rx="5" fill="#fcfcfc"/>
      
      

     
   
  </g>

  <g class='  keycap'
  >

  
    <!-- Outer Border -->
    <rect x="608.5" y="122.5"
          width="52" height="52"
          rx="5" fill="#cccccc" class="outer border"/>
    
    <!-- Outer Fill -->
    <rect x="608.5" y="122.5"
          width="52" height="52"
          rx="5" fill="#cccccc"/>
    

    
      <!-- Inner Border -->
      <rect x="614.5" y="125.5"
            width="40" height="40"
            rx="5" fill="#fcfcfc" class="inner border"/>
      
      <!-- Inner Fill -->
      <rect x="614.5" y="125.5"
            width="40" height="40"
            rx="5" fill="#fcfcfc"/>
      
      

     
   
  </g>

  <g class='  keycap'
  >

  
    <!-- Outer Border -->
    <rect x="824.5" y="129.25"
          width="52" height="52"
          rx="5" fill="#cccccc" class="outer border"/>
    
    <!-- Outer Fill -->
    <rect x="824.5" y="129.25"
          width="52" height="52"
          rx="5" fill="#cccccc"/>
    

    
      <!-- Inner Border -->
      <rect x="830.5" y="132.25"
            width="40" height="40"
            rx="5" fill="#fcfcfc" class="inner border"/>
      
      <!-- Inner Fill -->
      <rect x="830.5" y="132.25"
            width="40" height="40"
            rx="5" fill="#fcfcfc"/>
      
      

     
   
  </g>

  <g class='ghosted  keycap'
  >

  
    <!-- Outer Border -->
    <rect x="878.5" y="129.25"
          width="92.5" height="52"
          rx="5" fill="#cccccc" class="outer border"/>
    
    <!-- Outer Fill -->
    <rect x="878.5" y="129.25"
          width="92.5" height="52"
          rx="5" fill="#cccccc"/>
    

     
   
  </g>

  <g class='  keycap'
  >

  
    <!-- Outer Border -->
    <rect x="878.5" y="129.25"
          width="119.5" height="52"
          rx="5" fill="#cccccc" class="outer border"/>
    
    <!-- Outer Fill -->
    <rect x="878.5" y="129.25"
          width="119.5" height="52"
          rx="5" fill="#cccccc"/>
    

    
      <!-- Inner Border -->
      <rect x="884.5" y="132.25"
            width="107.5" height="40"
            rx="5" fill="#fcfcfc" class="inner border"/>
      
      <!-- Inner Fill -->
      <rect x="884.5" y="132.25"
            width="107.5" height="40"
            rx="5" fill="#fcfcfc"/>
      
      

     
   
  </g>

  <g class='  keycap'
  >

  
    <!-- Outer Border -->
    <rect x="554.5" y="149.5"
          width="52" height="52"
          rx="5" fill="#cccccc" class="outer border"/>
    
      <rect x="554.5" y="149.5"
            width="25" height="52"
            rx="5" fill="#cccccc" class="outer border"/>
    
    <!-- Outer Fill -->
    <rect x="554.5" y="149.5"
          width="52" height="52"
          rx="5" fill="#cccccc"/>
    
      <rect x="554.5" y="149.5"
            width="25" height="52"
            rx="5" fill="#cccccc"/>
    

    
      <!-- Inner Border -->
      <rect x="560.5" y="152.5"
            width="40" height="40"
            rx="5" fill="#fcfcfc" class="inner border"/>
      
        <rect x="560.5" y="152.5"
              width="13" height="40"
              rx="5" fill="#fcfcfc" class="inner border"/>
      
      <!-- Inner Fill -->
      <rect x="560.5" y="152.5"
            width="40" height="40"
            rx="5" fill="#fcfcfc"/>
      
        <rect x="560.5" y="152.5"
              width="13" height="40"
              rx="5" fill="#fcfcfc"/>
      
      

     
   
  </g>

  <g class='  keycap'
  >

  
    <!-- Outer Border -->
    <rect x="716.5" y="163"
          width="52" height="52"
          rx="5" fill="#cccccc" class="outer border"/>
    
    <!-- Outer Fill -->
    <rect x="716.5" y="163"
          width="52" height="52"
          rx="5" fill="#cccccc"/>
    

    
      <!-- Inner Border -->
      <rect x="722.5" y="166"
            width="40" height="40"
            rx="5" fill="#fcfcfc" class="inner border"/>
      
      <!-- Inner Fill -->
      <rect x="722.5" y="166"
            width="40" height="40"
            rx="5" fill="#fcfcfc"/>
      
      

     
   
  </g>

  <g class='  keycap'
  >

  
    <!-- Outer Border -->
    <rect x="662.5" y="169.75"
          width="52" height="52"
          rx="5" fill="#cccccc" class="outer border"/>
    
    <!-- Outer Fill -->
    <rect x="662.5" y="169.75"
          width="52" height="52"
          rx="5" fill="#cccccc"/>
    

    
      <!-- Inner Border -->
      <rect x="668.5" y="172.75"
            width="40" height="40"
            rx="5" fill="#fcfcfc" class="inner border"/>
      
      <!-- Inner Fill -->
      <rect x="668.5" y="172.75"
            width="40" height="40"
            rx="5" fill="#fcfcfc"/>
      
      

     
   
  </g>

  <g class='  keycap'
  >

  
    <!-- Outer Border -->
    <rect x="770.5" y="169.75"
          width="52" height="52"
          rx="5" fill="#cccccc" class="outer border"/>
    
    <!-- Outer Fill -->
    <rect x="770.5" y="169.75"
          width="52" height="52"
          rx="5" fill="#cccccc"/>
    

    
      <!-- Inner Border -->
      <rect x="776.5" y="172.75"
            width="40" height="40"
            rx="5" fill="#fcfcfc" class="inner border"/>
      
      <!-- Inner Fill -->
      <rect x="776.5" y="172.75"
            width="40" height="40"
            rx="5" fill="#fcfcfc"/>
      
      

     
   
  </g>

  <g class='  keycap'
  >

  
    <!-- Outer Border -->
    <rect x="608.5" y="176.5"
          width="52" height="52"
          rx="5" fill="#cccccc" class="outer border"/>
    
    <!-- Outer Fill -->
    <rect x="608.5" y="176.5"
          width="52" height="52"
          rx="5" fill="#cccccc"/>
    

    
      <!-- Inner Border -->
      <rect x="614.5" y="179.5"
            width="40" height="40"
            rx="5" fill="#fcfcfc" class="inner border"/>
      
      <!-- Inner Fill -->
      <rect x="614.5" y="179.5"
            width="40" height="40"
            rx="5" fill="#fcfcfc"/>
      
      

     
   
  </g>

  <g class='  keycap'
  >

  
    <!-- Outer Border -->
    <rect x="824.5" y="183.25"
          width="52" height="52"
          rx="5" fill="#cccccc" class="outer border"/>
    
    <!-- Outer Fill -->
    <rect x="824.5" y="183.25"
          width="52" height="52"
          rx="5" fill="#cccccc"/>
    

    
      <!-- Inner Border -->
      <rect x="830.5" y="186.25"
            width="40" height="40"
            rx="5" fill="#fcfcfc" class="inner border"/>
      
      <!-- Inner Fill -->
      <rect x="830.5" y="186.25"
            width="40" height="40"
            rx="5" fill="#fcfcfc"/>
      
      

     
   
  </g>

  <g class='ghosted  keycap'
  >

  
    <!-- Outer Border -->
    <rect x="878.5" y="183.25"
          width="119.5" height="52"
          rx="5" fill="#cccccc" class="outer border"/>
    
    <!-- Outer Fill -->
    <rect x="878.5" y="183.25"
          width="119.5" height="52"
          rx="5" fill="#cccccc"/>
    

     
   
  </g>

  <g class='  keycap'
  >

  
    <!-- Outer Border -->
    <rect x="878.5" y="183.25"
          width="52" height="52"
          rx="5" fill="#cccccc" class="outer border"/>
    
    <!-- Outer Fill -->
    <rect x="878.5" y="183.25"
          width="52" height="52"
          rx="5" fill="#cccccc"/>
    

    
      <!-- Inner Border -->
      <rect x="884.5" y="186.25"
            width="40" height="40"
            rx="5" fill="#fcfcfc" class="inner border"/>
      
      <!-- Inner Fill -->
      <rect x="884.5" y="186.25"
            width="40" height="40"
            rx="5" fill="#fcfcfc"/>
      
      

     
   
  </g>

  <g class='  keycap'
  >

  
    <!-- Outer Border -->
    <rect x="932.5" y="183.25"
          width="79" height="52"
          rx="5" fill="#cccccc" class="outer border"/>
    
    <!-- Outer Fill -->
    <rect x="932.5" y="183.25"
          width="79" height="52"
          rx="5" fill="#cccccc"/>
    

    
      <!-- Inner Border -->
      <rect x="938.5" y="186.25"
            width="67" height="40"
            rx="5" fill="#fcfcfc" class="inner border"/>
      
      <!-- Inner Fill -->
      <rect x="938.5" y="186.25"
            width="67" height="40"
            rx="5" fill="#fcfcfc"/>
      
      

     
   
  </g>

  <g class='  keycap'
  >

  
    <!-- Outer Border -->
    <rect x="716.5" y="217"
          width="52" height="52"
          rx="5" fill="#cccccc" class="outer border"/>
    
    <!-- Outer Fill -->
    <rect x="716.5" y="217"
          width="52" height="52"
          rx="5" fill="#cccccc"/>
    

    
      <!-- Inner Border -->
      <rect x="722.5" y="220"
            width="40" height="40"
            rx="5" fill="#fcfcfc" class="inner border"/>
      
      <!-- Inner Fill -->
      <rect x="722.5" y="220"
            width="40" height="40"
            rx="5" fill="#fcfcfc"/>
      
      

     
   
  </g>

  <g class='  keycap'
  >

  
    <!-- Outer Border -->
    <rect x="662.5" y="223.75"
          width="52" height="52"
          rx="5" fill="#cccccc" class="outer border"/>
    
    <!-- Outer Fill -->
    <rect x="662.5" y="223.75"
          width="52" height="52"
          rx="5" fill="#cccccc"/>
    

    
      <!-- Inner Border -->
      <rect x="668.5" y="226.75"
            width="40" height="40"
            rx="5" fill="#fcfcfc" class="inner border"/>
      
      <!-- Inner Fill -->
      <rect x="668.5" y="226.75"
            width="40" height="40"
            rx="5" fill="#fcfcfc"/>
      
      

     
   
  </g>

  <g class='  keycap'
  >

  
    <!-- Outer Border -->
    <rect x="770.5" y="223.75"
          width="52" height="52"
          rx="5" fill="#cccccc" class="outer border"/>
    
    <!-- Outer Fill -->
    <rect x="770.5" y="223.75"
          width="52" height="52"
          rx="5" fill="#cccccc"/>
    

    
      <!-- Inner Border -->
      <rect x="776.5" y="226.75"
            width="40" height="40"
            rx="5" fill="#fcfcfc" class="inner border"/>
      
      <!-- Inner Fill -->
      <rect x="776.5" y="226.75"
            width="40" height="40"
            rx="5" fill="#fcfcfc"/>
      
      

     
   
  </g>

  <g class=' decal keycap'
  >

   
  </g>

  <g class='  keycap'
  >

  
    <!-- Outer Border -->
    <rect x="824.5" y="237.25"
          width="52" height="52"
          rx="5" fill="#cccccc" class="outer border"/>
    
    <!-- Outer Fill -->
    <rect x="824.5" y="237.25"
          width="52" height="52"
          rx="5" fill="#cccccc"/>
    

    
      <!-- Inner Border -->
      <rect x="830.5" y="240.25"
            width="40" height="40"
            rx="5" fill="#fcfcfc" class="inner border"/>
      
      <!-- Inner Fill -->
      <rect x="830.5" y="240.25"
            width="40" height="40"
            rx="5" fill="#fcfcfc"/>
      
      

     
   
  </g>

  <g class='  keycap'
  >

  
    <!-- Outer Border -->
    <rect x="878.5" y="237.25"
          width="52" height="52"
          rx="5" fill="#cccccc" class="outer border"/>
    
    <!-- Outer Fill -->
    <rect x="878.5" y="237.25"
          width="52" height="52"
          rx="5" fill="#cccccc"/>
    

    
      <!-- Inner Border -->
      <rect x="884.5" y="240.25"
            width="40" height="40"
            rx="5" fill="#fcfcfc" class="inner border"/>
      
      <!-- Inner Fill -->
      <rect x="884.5" y="240.25"
            width="40" height="40"
            rx="5" fill="#fcfcfc"/>
      
      

     
   
  </g>

  <g class='  keycap'
  >

  
    <!-- Outer Border -->
    <rect x="932.5" y="237.25"
          width="52" height="52"
          rx="5" fill="#cccccc" class="outer border"/>
    
    <!-- Outer Fill -->
    <rect x="932.5" y="237.25"
          width="52" height="52"
          rx="5" fill="#cccccc"/>
    

    
      <!-- Inner Border -->
      <rect x="938.5" y="240.25"
            width="40" height="40"
            rx="5" fill="#fcfcfc" class="inner border"/>
      
      <!-- Inner Fill -->
      <rect x="938.5" y="240.25"
            width="40" height="40"
            rx="5" fill="#fcfcfc"/>
      
      

     
   
  </g>

  <g class='  keycap'
  
     transform="rotate(-30 675 229.5)"
  >

  
    <!-- Outer Border -->
    <rect x="554.5" y="176.5"
          width="52" height="79"
          rx="5" fill="#cccccc" class="outer border"/>
    
    <!-- Outer Fill -->
    <rect x="554.5" y="176.5"
          width="52" height="79"
          rx="5" fill="#cccccc"/>
    

    
      <!-- Inner Border -->
      <rect x="560.5" y="179.5"
            width="40" height="67"
            rx="5" fill="#fcfcfc" class="inner border"/>
      
      <!-- Inner Fill -->
      <rect x="560.5" y="179.5"
            width="40" height="67"
            rx="5" fill="#fcfcfc"/>
      
      

     
   
  </g>

      </g>
    </g>
  </svg>
