<svg id="Layer_1" data-name="Layer 1" xmlns="http://www.w3.org/2000/svg" viewBox="0 0 84.34 21.1"><title>suite61logo</title><path d="M27.17,10.23l.16.43c-.93.43-2,.88-3.17,1.34l-.33.12q.08-.43.15-1.08t.12-.9a6.62,6.62,0,0,0,.07-.89c0-.51-.24-.77-.73-.77a5.43,5.43,0,0,0-2.82,1,4,4,0,0,0-2.19,3.26.86.86,0,0,0,.58.89,9,9,0,0,0,2.47.21h.17c0-.27,0-.46,0-.56a5.43,5.43,0,0,0-.3-1.89c.85.2,1.27.94,1.27,2.23v.22l2,0a6.78,6.78,0,0,1,2,.2,2.67,2.67,0,0,1,1.89,2.77,8.45,8.45,0,0,1-2.11,5.41,7.65,7.65,0,0,1-6.13,3.08,4.52,4.52,0,0,1-4-2.14,12.31,12.31,0,0,1-6.66,2,10.12,10.12,0,0,1-4.93-1.22Q.3,21.55.29,15.78a9,9,0,0,1,2-6,6.16,6.16,0,0,1,5-2.34,7.33,7.33,0,0,1,5.05,1.89,8,8,0,0,1,1.91,2.55,32.36,32.36,0,0,1,1.65,4.8L16.44,19a22.84,22.84,0,0,0,.94,2.8,8.26,8.26,0,0,0,2.52-2.71,10.4,10.4,0,0,0,1.56-3.63h-.59a9,9,0,0,1-3-.35A1.23,1.23,0,0,1,17,13.89a5.19,5.19,0,0,1,1.54-3.19,8.84,8.84,0,0,1,2.91-2.25,16.22,16.22,0,0,1,4.33-1.28l.43-.08,0,.21c-.09.38-.15.72-.2,1l-.21,1.2a6.27,6.27,0,0,0-.09.73c0,.25.11.37.31.37a1.19,1.19,0,0,0,.44-.09ZM16,22.71a15.74,15.74,0,0,1-.9-2.41l-1-3.73a16.91,16.91,0,0,0-2.91-6.47,5.33,5.33,0,0,0-4.24-2A5.12,5.12,0,0,0,2.79,9.86,7.42,7.42,0,0,0,1.3,14.79a9.78,9.78,0,0,0,.6,3.31A9.35,9.35,0,0,0,3.53,21a9.16,9.16,0,0,0,7,3.27A11,11,0,0,0,16,22.71Zm6.42-7.3a11,11,0,0,1-1.79,3.72,13.06,13.06,0,0,1-3.05,3.14A4.83,4.83,0,0,0,19,24.14a3.24,3.24,0,0,0,1.95.54,5.82,5.82,0,0,0,4.34-2A6.62,6.62,0,0,0,27.13,18a2.28,2.28,0,0,0-.82-2,5.42,5.42,0,0,0-2.94-.57h-.95Z" transform="translate(-0.29 -4.91)"/><path d="M37.39,17.15c-.45.88-1,2.1-1.66,3.69a15.78,15.78,0,0,0-1,2.76q0,.3.33.3a2.39,2.39,0,0,0,.77-.19L36,24a24.78,24.78,0,0,1-2.36,1l-.26.09a15.47,15.47,0,0,1,1-3.39,15.59,15.59,0,0,1-2.39,2.49,3.31,3.31,0,0,1-1.86.9.58.58,0,0,1-.65-.67,10.56,10.56,0,0,1,1.2-3.33l.79-1.64a3.78,3.78,0,0,0,.38-1.09c0-.22-.1-.33-.34-.33a2.23,2.23,0,0,0-.54.12l-.08-.29.16,0A20.67,20.67,0,0,0,33.27,17a7,7,0,0,1-.87,2.57l-.85,1.73a9.27,9.27,0,0,0-1,2.46c0,.28.12.42.37.42.63,0,1.46-.66,2.51-2A17,17,0,0,0,36,17.83l.12-.31A4.76,4.76,0,0,0,37.39,17.15Z" transform="translate(-0.29 -4.91)"/><path d="M41.41,16.86V17A11.69,11.69,0,0,1,40.2,20.6l-.72,1.64a9.07,9.07,0,0,0-.6,1.61c0,.21.11.3.34.29a2.37,2.37,0,0,0,.64-.21l.13.28a24.26,24.26,0,0,1-2.45,1.05,6.78,6.78,0,0,1,.29-1.69q.26-.78,1.08-2.58A13.72,13.72,0,0,0,40,18.3c0-.2-.07-.31-.26-.31a1.4,1.4,0,0,0-.33.07l-.41.15-.18.07-.1-.32.2-.06c.73-.27,1.46-.57,2.21-.9Zm.57-2.5a.4.4,0,0,1,.45.45.66.66,0,0,1-.2.46.6.6,0,0,1-.45.2c-.31,0-.46-.14-.46-.44a.7.7,0,0,1,.66-.67Z" transform="translate(-0.29 -4.91)"/><path d="M47.24,17.09l-.12.29H45.74l-.08.16c-.12.27-.46,1-1,2.29-.23.51-.54,1.22-.94,2.13A7.16,7.16,0,0,0,43,24a.38.38,0,0,0,.43.42,2.87,2.87,0,0,0,1.42-.6L45,24a6,6,0,0,1-1.34.76,3.37,3.37,0,0,1-1.24.31c-.49,0-.73-.19-.73-.57a9.5,9.5,0,0,1,.82-2.31l1-2.31q.86-2,1-2.31l.1-.22H43.34l.13-.29h.13a1.7,1.7,0,0,0,1.13-.27,5,5,0,0,0,.78-1.48h.2a3.71,3.71,0,0,0,.93-.12c-.07.19-.2.5-.38.93l-.3.7-.09.23Z" transform="translate(-0.29 -4.91)"/><path d="M52,20.88a1.19,1.19,0,0,1,.14.49,3.31,3.31,0,0,1-1.3,2.16c-1.27,1.19-2.34,1.79-3.23,1.79s-1.14-.43-1.14-1.3a6.34,6.34,0,0,1,.9-3.08,8.06,8.06,0,0,1,2.29-2.65,5.26,5.26,0,0,1,3-1.27c.52,0,.77.19.77.56a1.64,1.64,0,0,1-.37.9,4.09,4.09,0,0,1-.92.94,6.21,6.21,0,0,1-1.32.7,3.54,3.54,0,0,1-1.22.33.65.65,0,0,1-.64-.51,4.7,4.7,0,0,0,.66.06,3.1,3.1,0,0,0,1.8-.57,1.51,1.51,0,0,0,.82-1.21c0-.31-.2-.47-.6-.47a3.07,3.07,0,0,0-2.22,1.33,8.18,8.18,0,0,0-1.32,2.19,6,6,0,0,0-.52,2.22c0,.67.28,1,.84,1a2.78,2.78,0,0,0,1.91-1A8.11,8.11,0,0,0,52,20.88Z" transform="translate(-0.29 -4.91)"/><path d="M73.08,5.11c0,.11-.11.17-.35.17H72.4q-3.14,0-7.74,4.47a30.38,30.38,0,0,0-6.87,9.69,16.11,16.11,0,0,1,4.11-4.59,7.48,7.48,0,0,1,4.42-1.75,3.92,3.92,0,0,1,2.85,1.07,3.74,3.74,0,0,1,1.1,2.8q0,3.12-3.42,6.08a10.66,10.66,0,0,1-7,3,4.09,4.09,0,0,1-3.14-1.27,4.86,4.86,0,0,1-1.17-3.42,11.26,11.26,0,0,1,2.62-6.66,29.49,29.49,0,0,1,7.35-6.61,26.59,26.59,0,0,1,4.08-2.21,9.48,9.48,0,0,1,3.2-.94C73,4.91,73.08,5,73.08,5.11ZM68.76,15.69c0-1.58-.87-2.37-2.62-2.37s-3.85,1.1-6,3.28S57,20.84,57,22.77A3.36,3.36,0,0,0,57.72,25a2.26,2.26,0,0,0,1.83.82c1.82,0,3.8-1.18,6-3.56S68.76,17.68,68.76,15.69Z" transform="translate(-0.29 -4.91)"/><path d="M84.64,7.43q0,.15-4,6.33-3.21,4.94-4.42,7.29a21.79,21.79,0,0,0-1.84,4.74,4.78,4.78,0,0,0-1.09-.14,15.49,15.49,0,0,0-1.9.21Q72.6,22.37,78.7,15a77.11,77.11,0,0,0,5-6.45,59.63,59.63,0,0,1-9.18,8.93c-2,1.51-3.17,2.26-3.56,2.26-.1,0-.14,0-.14-.1s.07-.16.21-.21Q75.46,17.4,84,8l.23-.24c.22-.24.35-.35.39-.35S84.64,7.39,84.64,7.43Z" transform="translate(-0.29 -4.91)"/></svg>