M48
; DRILL file {KiCad (6.0.11)} date Fri May 19 13:45:09 2023
; FORMAT={-:-/ absolute / inch / decimal}
; #@! TF.CreationDate,2023-05-19T13:45:09-07:00
; #@! TF.GenerationSoftware,Kicad,Pcbnew,(6.0.11)
; #@! TF.FileFunction,NonPlated,1,2,NPTH
FMAT,2
INCH
; #@! TA.AperFunction,NonPlated,NPTH,ComponentDrill
T1C0.0335
; #@! TA.AperFunction,NonPlated,NPTH,ComponentDrill
T2C0.0591
; #@! TA.AperFunction,NonPlated,NPTH,ComponentDrill
T3C0.0669
; #@! TA.AperFunction,NonPlated,NPTH,ComponentDrill
T4C0.1181
; #@! TA.AperFunction,NonPlated,NPTH,ComponentDrill
T5C0.1457
; #@! TA.AperFunction,NonPlated,NPTH,ComponentDrill
T6C0.1570
; #@! TA.AperFunction,NonPlated,NPTH,ComponentDrill
T7C0.1575
%
G90
G05
T1
X6.8185Y-1.1209
X6.8185Y-1.1209
X6.9366Y-1.1209
X6.9366Y-1.1209
X7.7732Y-2.7961
X7.7732Y-2.7961
X7.7732Y-2.9142
X7.7732Y-2.9142
T3
X1.6148Y-3.9472
X1.8023Y-4.6972
X2.0148Y-3.9472
X2.0833Y-3.197
X2.0833Y-3.947
X2.2023Y-4.6972
X2.2711Y-3.197
X2.4833Y-3.197
X2.4833Y-3.947
X2.5521Y-3.947
X2.5523Y-1.6972
X2.5523Y-2.4474
X2.5523Y-4.6972
X2.6711Y-3.197
X2.9521Y-3.947
X2.9523Y-1.6972
X2.9523Y-2.4474
X2.9523Y-4.6972
X3.3021Y-1.6972
X3.3021Y-2.4474
X3.3023Y-3.197
X3.3023Y-3.947
X3.3023Y-4.6972
X3.7021Y-1.6972
X3.7021Y-2.4474
X3.7023Y-3.197
X3.7023Y-3.947
X3.7023Y-4.6972
X4.0521Y-1.5097
X4.0521Y-2.2599
X4.0523Y-3.0095
X4.0523Y-3.7595
X4.0523Y-4.5097
X4.4521Y-1.5097
X4.4521Y-2.2599
X4.4523Y-3.0095
X4.4523Y-3.7595
X4.4523Y-4.5097
X4.8021Y-1.416
X4.8021Y-2.1662
X4.8023Y-2.9157
X4.8023Y-3.6657
X4.8023Y-4.416
X5.2021Y-1.416
X5.2021Y-2.1662
X5.2023Y-2.9157
X5.2023Y-3.6657
X5.2023Y-4.416
X5.5501Y-1.5097
X5.5521Y-2.2602
X5.5523Y-3.0097
X5.5523Y-3.7597
X5.5523Y-4.5097
X5.9501Y-1.5097
X5.9521Y-2.2602
X5.9523Y-3.0097
X5.9523Y-3.7597
X5.9523Y-4.5097
X6.3021Y-1.6035
X6.3021Y-2.3537
X6.3023Y-3.1032
X6.3023Y-3.8532
X6.7021Y-1.6035
X6.7021Y-2.3537
X6.7023Y-3.1032
X6.7023Y-3.8532
X7.0411Y-4.7703
X7.2411Y-4.4239
X7.2443Y-3.5042
X7.6443Y-3.5042
T4
X1.7148Y-3.7472
X1.8523Y-4.5972
X1.9023Y-4.4972
X1.9648Y-3.8472
X2.1023Y-4.4972
X2.1333Y-3.847
X2.1523Y-4.5972
X2.1833Y-2.997
X2.3211Y-3.097
X2.3833Y-3.747
X2.4333Y-3.097
X2.5711Y-2.997
X2.6023Y-1.5972
X2.6023Y-2.3474
X2.6023Y-4.5972
X2.6521Y-3.747
X2.6523Y-1.4972
X2.6523Y-2.2474
X2.6523Y-4.4972
X2.8523Y-1.4972
X2.8523Y-2.2474
X2.8523Y-4.4972
X2.9021Y-3.847
X2.9023Y-1.5972
X2.9023Y-2.3474
X2.9023Y-4.5972
X3.3521Y-1.5972
X3.3521Y-2.3474
X3.3523Y-3.097
X3.3523Y-3.847
X3.3523Y-4.5972
X3.4021Y-1.4972
X3.4021Y-2.2474
X3.4023Y-2.997
X3.4023Y-3.747
X3.4023Y-4.4972
X3.6021Y-1.4972
X3.6021Y-2.2474
X3.6023Y-2.997
X3.6023Y-3.747
X3.6023Y-4.4972
X3.6521Y-1.5972
X3.6521Y-2.3474
X3.6523Y-3.097
X3.6523Y-3.847
X3.6523Y-4.5972
X4.1021Y-1.4097
X4.1021Y-2.1599
X4.1023Y-2.9095
X4.1023Y-3.6595
X4.1023Y-4.4097
X4.1521Y-1.3097
X4.1521Y-2.0599
X4.1523Y-2.8095
X4.1523Y-3.5595
X4.1523Y-4.3097
X4.3521Y-1.3097
X4.3521Y-2.0599
X4.3523Y-2.8095
X4.3523Y-3.5595
X4.3523Y-4.3097
X4.4021Y-1.4097
X4.4021Y-2.1599
X4.4023Y-2.9095
X4.4023Y-3.6595
X4.4023Y-4.4097
X4.8521Y-1.316
X4.8521Y-2.0662
X4.8523Y-2.8157
X4.8523Y-3.5657
X4.8523Y-4.316
X4.9021Y-1.216
X4.9021Y-1.9662
X4.9023Y-2.7157
X4.9023Y-3.4657
X4.9023Y-4.216
X5.1021Y-1.216
X5.1021Y-1.9662
X5.1023Y-2.7157
X5.1023Y-3.4657
X5.1023Y-4.216
X5.1521Y-1.316
X5.1521Y-2.0662
X5.1523Y-2.8157
X5.1523Y-3.5657
X5.1523Y-4.316
X5.6001Y-1.4097
X5.6021Y-2.1602
X5.6023Y-2.9097
X5.6023Y-3.6597
X5.6023Y-4.4097
X5.6501Y-1.3097
X5.6521Y-2.0602
X5.6523Y-2.8097
X5.6523Y-3.5597
X5.6523Y-4.3097
X5.8501Y-1.3097
X5.8521Y-2.0602
X5.8523Y-2.8097
X5.8523Y-3.5597
X5.8523Y-4.3097
X5.9001Y-1.4097
X5.9021Y-2.1602
X5.9023Y-2.9097
X5.9023Y-3.6597
X5.9023Y-4.4097
X6.3521Y-1.5035
X6.3521Y-2.2537
X6.3523Y-3.0032
X6.3523Y-3.7532
X6.4021Y-1.4035
X6.4021Y-2.1537
X6.4023Y-2.9032
X6.4023Y-3.6532
X6.6021Y-1.4035
X6.6021Y-2.1537
X6.6023Y-2.9032
X6.6023Y-3.6532
X6.6521Y-1.5035
X6.6521Y-2.2537
X6.6523Y-3.0032
X6.6523Y-3.7532
X6.9179Y-4.5837
X6.9795Y-4.677
X7.0179Y-4.4105
X7.1295Y-4.4172
X7.2943Y-3.4042
X7.3443Y-3.3042
X7.5443Y-3.3042
X7.5943Y-3.4042
T5
X3.1875Y-7.2812
X3.6562Y-7.2812
X4.25Y-7.2812
X4.875Y-7.2812
X5.5Y-7.2812
T6
X1.8146Y-3.522
X1.8146Y-4.272
X2.7521Y-3.522
X2.7521Y-4.272
T7
X1.8148Y-3.9472
X2.0023Y-4.6972
X2.2833Y-3.197
X2.2833Y-3.947
X2.4711Y-3.197
X2.7521Y-3.947
X2.7523Y-1.6972
X2.7523Y-2.4474
X2.7523Y-4.6972
X3.5021Y-1.6972
X3.5021Y-2.4474
X3.5023Y-3.197
X3.5023Y-3.947
X3.5023Y-4.6972
X4.2521Y-1.5097
X4.2521Y-2.2599
X4.2523Y-3.0095
X4.2523Y-3.7595
X4.2523Y-4.5097
X5.0021Y-1.416
X5.0021Y-2.1662
X5.0023Y-2.9157
X5.0023Y-3.6657
X5.0023Y-4.416
X5.7501Y-1.5097
X5.7521Y-2.2602
X5.7523Y-3.0097
X5.7523Y-3.7597
X5.7523Y-4.5097
X6.5021Y-1.6035
X6.5021Y-2.3537
X6.5023Y-3.1032
X6.5023Y-3.8532
X7.1411Y-4.5971
X7.4443Y-3.5042
T2
G00X7.2238Y-3.5298
M15
G01X7.2238Y-3.4786
M16
G05
G00X7.6647Y-3.5298
M15
G01X7.6647Y-3.4786
M16
G05
T0
M30
