%TF.GenerationSoftware,KiCad,Pcbnew,(6.0.11)*%
%TF.CreationDate,2023-05-19T13:45:06-07:00*%
%TF.ProjectId,suite61pcb,73756974-6536-4317-9063-622e6b696361,rev?*%
%TF.SameCoordinates,Original*%
%TF.FileFunction,Profile,NP*%
%FSLAX46Y46*%
G04 Gerber Fmt 4.6, Leading zero omitted, Abs format (unit mm)*
G04 Created by KiCad (PCBNEW (6.0.11)) date 2023-05-19 13:45:06*
%MOMM*%
%LPD*%
G01*
G04 APERTURE LIST*
%TA.AperFunction,Profile*%
%ADD10C,0.100000*%
%TD*%
G04 APERTURE END LIST*
D10*
X195240000Y-25570000D02*
X199469438Y-25877760D01*
X201005052Y-26277397D01*
X201168324Y-30768249D01*
X201240282Y-40273965D01*
X201130455Y-67727174D01*
X200715977Y-95431388D01*
X200407119Y-105250861D01*
X200037250Y-110180972D01*
X199746212Y-111238633D01*
X199262655Y-112559164D01*
X198608643Y-114099791D01*
X197806237Y-115817740D01*
X196877500Y-117670236D01*
X195844494Y-119614504D01*
X194729281Y-121607772D01*
X193553925Y-123607263D01*
X192340487Y-125570204D01*
X191111030Y-127453822D01*
X189887616Y-129215340D01*
X188692307Y-130811986D01*
X187547167Y-132200984D01*
X186474256Y-133339561D01*
X185495639Y-134184942D01*
X185048584Y-134484317D01*
X184633376Y-134694353D01*
X183182514Y-135046213D01*
X180746575Y-135354155D01*
X173491640Y-135842756D01*
X164012917Y-136169098D01*
X153454752Y-136342120D01*
X142961491Y-136370765D01*
X133677481Y-136263972D01*
X126747067Y-136030682D01*
X124522067Y-135869395D01*
X123314595Y-135679836D01*
X122509042Y-135408859D01*
X121740453Y-135113583D01*
X121003323Y-134797612D01*
X120292146Y-134464545D01*
X119601418Y-134117985D01*
X118925632Y-133761531D01*
X117596868Y-133033350D01*
X116261812Y-132308812D01*
X115578161Y-131956911D01*
X114876422Y-131616725D01*
X114151089Y-131291853D01*
X113396657Y-130985898D01*
X112607621Y-130702460D01*
X111778474Y-130445142D01*
X110158590Y-130214695D01*
X107392015Y-130082939D01*
X99056143Y-130055605D01*
X75634926Y-130526378D01*
X51712358Y-130899133D01*
X42749798Y-130749278D01*
X39575876Y-130537883D01*
X37485976Y-130215546D01*
X36750768Y-129960862D01*
X36039765Y-129584226D01*
X35352726Y-129092563D01*
X34689414Y-128492798D01*
X34049590Y-127791856D01*
X33433015Y-126996662D01*
X32839451Y-126114141D01*
X32268658Y-125151217D01*
X31194435Y-123011863D01*
X30208435Y-120633997D01*
X29308749Y-118073020D01*
X28493469Y-115384331D01*
X27760684Y-112623328D01*
X27108486Y-109845411D01*
X26534966Y-107105980D01*
X26038213Y-104460432D01*
X25267376Y-99672586D01*
X24780700Y-95925066D01*
X24771471Y-95029682D01*
X24913954Y-93896278D01*
X25622051Y-90981100D01*
X26840976Y-87310907D01*
X28506717Y-83017073D01*
X30555258Y-78230976D01*
X32922586Y-73083990D01*
X35544686Y-67707491D01*
X38357546Y-62232855D01*
X41297151Y-56791458D01*
X44299486Y-51514675D01*
X47300538Y-46533881D01*
X50236293Y-41980453D01*
X53042737Y-37985765D01*
X55655855Y-34681194D01*
X58011634Y-32198116D01*
X59073018Y-31305691D01*
X60046061Y-30667905D01*
X63200962Y-29734486D01*
X68833783Y-28886931D01*
X86055541Y-27451131D01*
X108756053Y-26363942D01*
X133980037Y-25628799D01*
X158772210Y-25249137D01*
X180177292Y-25228392D01*
X195240000Y-25570000D01*
M02*
