M48
; DRILL file {KiCad (6.0.11)} date Fri May 19 13:45:09 2023
; FORMAT={-:-/ absolute / inch / decimal}
; #@! TF.CreationDate,2023-05-19T13:45:09-07:00
; #@! TF.GenerationSoftware,Kicad,Pcbnew,(6.0.11)
; #@! TF.FileFunction,Plated,1,2,PTH
FMAT,2
INCH
; #@! TA.AperFunction,Plated,PTH,ViaDrill
T1C0.0157
; #@! TA.AperFunction,Plated,PTH,ComponentDrill
T2C0.0394
; #@! TA.AperFunction,Plated,PTH,ComponentDrill
T3C0.0430
; #@! TA.AperFunction,Plated,PTH,ComponentDrill
T4C0.1200
%
G90
G05
T1
X1.6674Y-4.4962
X1.8876Y-4.8508
X2.095Y-4.8847
X2.3377Y-4.4962
X2.4022Y-3.3377
X2.4174Y-1.4962
X2.4174Y-2.2472
X2.4174Y-4.4962
X2.4184Y-2.9243
X2.5011Y-3.6792
X2.618Y-3.2988
X2.6861Y-1.8338
X2.6871Y-2.5808
X2.6874Y-4.838
X2.759Y-4.1477
X2.8605Y-2.6194
X2.8605Y-4.8694
X2.9313Y-4.0484
X3.0598Y-1.9983
X3.0867Y-1.4962
X3.0867Y-2.2472
X3.0867Y-4.4962
X3.1383Y-4.2009
X3.1388Y-2.0988
X3.1388Y-3.7794
X3.1655Y-4.256
X3.1674Y-1.4962
X3.1674Y-2.2472
X3.1674Y-2.9981
X3.1674Y-3.7462
X3.1674Y-4.4962
X3.178Y-4.3161
X3.2007Y-2.0393
X3.2314Y-4.3552
X3.2645Y-2.1479
X3.4371Y-1.8328
X3.4371Y-2.5808
X3.4371Y-3.3377
X3.4371Y-4.0779
X3.4374Y-4.8367
X3.6089Y-4.8708
X3.6098Y-4.1268
X3.6108Y-2.6187
X3.6118Y-1.8677
X3.6137Y-3.3657
X3.8367Y-1.4962
X3.8367Y-2.2472
X3.8367Y-2.9962
X3.8367Y-3.7462
X3.8367Y-4.4962
X3.9174Y-1.3092
X3.9174Y-2.0592
X3.9174Y-2.8092
X3.9174Y-3.5592
X3.9184Y-4.3092
X4.1851Y-1.6438
X4.1871Y-3.1507
X4.1871Y-3.8997
X4.1876Y-4.6453
X4.1881Y-2.3958
X4.3601Y-1.6823
X4.3601Y-3.9323
X4.3605Y-2.4314
X4.3613Y-4.6812
X4.3645Y-3.1793
X4.4672Y-4.021
X4.5213Y-4.0611
X4.559Y-1.7212
X4.5867Y-1.3092
X4.5867Y-2.0592
X4.5867Y-2.8082
X4.5867Y-3.5592
X4.5867Y-4.3082
X4.6092Y-4.1202
X4.6267Y-1.82
X4.6335Y-4.7685
X4.6674Y-1.2157
X4.6674Y-1.9657
X4.6674Y-2.7147
X4.6674Y-4.2157
X4.6684Y-3.4657
X4.6753Y-4.1599
X4.6983Y-1.7617
X4.7676Y-1.8637
X4.9371Y-2.4027
X4.9371Y-3.1507
X4.9371Y-3.8958
X4.9374Y-4.5569
X4.9381Y-1.6546
X5.1101Y-4.5884
X5.1104Y-2.3378
X5.1104Y-3.8397
X5.1158Y-1.5824
X5.1193Y-3.0789
X5.3367Y-1.2157
X5.3367Y-1.9657
X5.3367Y-2.7147
X5.3367Y-3.4647
X5.3367Y-4.2166
X5.4145Y-1.3092
X5.4174Y-2.0592
X5.4174Y-2.8092
X5.4174Y-4.3092
X5.4184Y-3.5592
X5.6851Y-2.3968
X5.6871Y-3.1507
X5.6871Y-3.8958
X5.7304Y-4.7147
X5.7342Y-1.6983
X5.8597Y-3.9325
X5.8607Y-2.4315
X5.8617Y-4.6805
X5.868Y-1.6742
X5.8692Y-3.1952
X6.0614Y-1.7803
X6.0848Y-1.3092
X6.0867Y-2.0592
X6.0867Y-3.5592
X6.0877Y-2.8092
X6.0877Y-4.3101
X6.1255Y-1.881
X6.1664Y-1.4027
X6.1664Y-2.1527
X6.1674Y-2.9027
X6.1684Y-3.6527
X6.1684Y-4.0817
X6.2019Y-1.8239
X6.2094Y-5.1532
X6.268Y-1.9235
X6.4298Y-3.2393
X6.4371Y-3.9863
X6.4391Y-1.7422
X6.4391Y-2.4932
X6.535Y-5.1139
X6.5734Y-5.0746
X6.6098Y-2.5343
X6.6107Y-4.025
X6.6133Y-1.7796
X6.6171Y-3.2686
X6.6287Y-4.3662
X6.6524Y-5.1398
X6.6528Y-4.2614
X6.7048Y-4.322
X6.7152Y-5.169
X6.7239Y-4.2323
X6.7432Y-1.1189
X6.751Y-5.0159
X6.8192Y-2.6309
X6.8259Y-4.8367
X6.8283Y-2.1524
X6.8367Y-3.6527
X6.8377Y-2.9037
X6.8382Y-1.4024
X6.8669Y-1.8531
X6.8772Y-1.1539
X6.8777Y-1.2329
X6.8825Y-1.1929
X6.9137Y-4.3157
X6.9311Y-2.3933
X6.935Y-2.6468
X6.9362Y-2.4505
X6.937Y-2.3544
X6.9421Y-1.8729
X6.9786Y-1.9483
X6.9915Y-1.987
X7.0149Y-1.1228
X7.0379Y-1.6182
X7.0478Y-3.6701
X7.1094Y-3.3042
X7.1261Y-2.4423
X7.1497Y-4.2107
X7.1676Y-2.0755
X7.2409Y-1.5157
X7.2475Y-2.3461
X7.2885Y-4.6172
X7.3017Y-4.7281
X7.3258Y-2.3978
X7.3441Y-3.6972
X7.3458Y-3.8606
X7.411Y-2.3675
X7.445Y-3.9804
X7.4648Y-1.7681
X7.5161Y-3.6475
X7.5166Y-2.3266
X7.5427Y-3.8591
X7.5471Y-2.1979
X7.5582Y-2.6976
X7.5665Y-1.6681
X7.5685Y-1.4181
X7.5701Y-1.1095
X7.5812Y-2.9289
X7.5879Y-2.1979
X7.594Y-2.3186
X7.5987Y-1.2534
X7.5992Y-1.3592
X7.6005Y-1.8584
X7.6065Y-1.7179
X7.6101Y-1.6181
X7.611Y-2.2547
X7.6144Y-1.9446
X7.6191Y-1.8005
X7.7004Y-2.8571
X7.705Y-3.2286
X7.7397Y-2.8551
X7.7481Y-2.9482
X7.7732Y-2.7193
X7.7732Y-2.9909
X7.7767Y-1.2019
T2
X7.3458Y-3.2286
X7.3458Y-3.7995
X7.4443Y-3.7995
X7.5427Y-3.2286
X7.5427Y-3.7995
T3
X7.0675Y-1.2683
X7.0675Y-1.3683
X7.0675Y-1.4683
X7.0675Y-1.5683
X7.0675Y-1.6683
X7.0675Y-1.7683
X7.0675Y-1.8683
X7.0675Y-1.9683
X7.0675Y-2.0683
X7.0675Y-2.1683
X7.0675Y-2.2683
X7.0675Y-2.3683
X7.1175Y-1.2183
X7.1175Y-1.3183
X7.1175Y-1.4183
X7.1175Y-1.5183
X7.1175Y-1.6183
X7.1175Y-1.7183
X7.1175Y-1.8183
X7.1175Y-1.9183
X7.1175Y-2.0183
X7.1175Y-2.1183
X7.1175Y-2.2183
X7.1175Y-2.3183
X7.1629Y-2.505
X7.1675Y-2.1683
X7.2629Y-2.505
X7.2675Y-2.1683
X7.3629Y-2.505
X7.3675Y-2.1683
X7.4175Y-2.1183
X7.4629Y-2.505
X7.5175Y-2.1183
X7.5629Y-2.505
X7.6175Y-2.1183
X7.6675Y-1.2683
X7.6675Y-1.3683
X7.6675Y-1.4683
X7.6675Y-1.5683
X7.6675Y-1.6683
X7.6675Y-1.7683
X7.6675Y-1.8683
X7.6675Y-1.9683
X7.6675Y-2.0683
X7.6675Y-2.1683
X7.6675Y-2.2683
X7.6675Y-2.3683
X7.7175Y-1.2183
X7.7175Y-1.3183
X7.7175Y-1.4183
X7.7175Y-1.5183
X7.7175Y-1.6183
X7.7175Y-1.7183
X7.7175Y-1.8183
X7.7175Y-1.9183
X7.7175Y-2.0183
X7.7175Y-2.1183
X7.7175Y-2.2183
X7.7175Y-2.3183
T4
X1.8146Y-2.922
X1.8146Y-3.672
X2.7521Y-2.922
X2.7521Y-3.672
T0
M30
